<svg id="Layer_1" data-name="Layer 1" xmlns="http://www.w3.org/2000/svg" width="12.86" height="13" viewBox="0 0 12.86 13"><defs><style>.cls-1{fill:#f0f0f0;}.cls-2{fill:none;stroke:#244a5a;stroke-miterlimit:10;}</style></defs><title>check_box</title><path class="cls-1" d="M12.36,2.41A1.9,1.9,0,0,0,10.47.5H2.39A1.9,1.9,0,0,0,.5,2.41v8.18A1.9,1.9,0,0,0,2.39,12.5h8.08a1.9,1.9,0,0,0,1.89-1.91V2.41Z"/><path class="cls-2" d="M12.36,2.41A1.9,1.9,0,0,0,10.47.5H2.39A1.9,1.9,0,0,0,.5,2.41v8.18A1.9,1.9,0,0,0,2.39,12.5h8.08a1.9,1.9,0,0,0,1.89-1.91V2.41Z"/></svg>