<?xml version="1.0" encoding="utf-8"?>
<!-- Generator: Adobe Illustrator 16.0.0, SVG Export Plug-In . SVG Version: 6.00 Build 0)  -->
<!DOCTYPE svg PUBLIC "-//W3C//DTD SVG 1.1//EN" "http://www.w3.org/Graphics/SVG/1.1/DTD/svg11.dtd">
<svg version="1.1" id="Layer_1" xmlns="http://www.w3.org/2000/svg" xmlns:xlink="http://www.w3.org/1999/xlink" x="0px" y="0px"
	 width="38px" height="38px" viewBox="-4.5 -4.5 38 38" enable-background="new -4.5 -4.5 38 38" xml:space="preserve">
<g id="Close_3_">
	<circle fill="#FFFFFF" stroke="#244A5A" stroke-miterlimit="10" cx="14.5" cy="14.5" r="18.5"/>
	<path fill="#244A5A" d="M15.387,10.558c1.39-0.841,2.715-1.704,4.101-2.458c1.26-0.687,2.581-1.258,3.88-1.867
		c0.143-0.065,0.326-0.041,0.49-0.059c0.028,0.055,0.059,0.108,0.086,0.162c-0.231,0.233-0.439,0.502-0.699,0.695
		c-1.122,0.83-2.292,1.599-3.383,2.466c-1.111,0.882-2.153,1.857-3.235,2.8c2.865,3.633,5.443,7.347,7.005,11.667
		c0.01,0.029-0.057,0.09-0.151,0.231c-2.341-3.795-5.345-6.923-8.772-9.753c-0.768,0.931-1.517,1.824-2.25,2.728
		c-1.347,1.66-2.397,3.504-3.365,5.401c-0.194,0.381-0.417,0.754-0.686,1.083c-0.634,0.77-1.485,0.728-2.015-0.11
		c-0.719-1.141-0.594-2.334-0.1-3.522c0.671-1.606,1.728-2.955,2.939-4.176c1.015-1.019,2.103-1.962,3.164-2.938
		c0.104-0.096,0.208-0.19,0.365-0.328c-0.172-0.135-0.315-0.268-0.477-0.365c-1.543-0.937-3.09-1.867-4.639-2.798
		c-0.376-0.228-0.781-0.42-1.13-0.687C5.603,8.033,5.689,7.077,6.702,6.539C7.79,5.962,8.899,6.068,9.999,6.511
		c1.488,0.6,2.724,1.587,3.904,2.65C14.41,9.618,14.898,10.099,15.387,10.558z"/>
</g>
</svg>
