<?xml version="1.0" encoding="utf-8"?>
<!-- Generator: Adobe Illustrator 16.0.0, SVG Export Plug-In . SVG Version: 6.00 Build 0)  -->
<!DOCTYPE svg PUBLIC "-//W3C//DTD SVG 1.1//EN" "http://www.w3.org/Graphics/SVG/1.1/DTD/svg11.dtd">
<svg version="1.1" id="help" xmlns="http://www.w3.org/2000/svg" xmlns:xlink="http://www.w3.org/1999/xlink" x="0px" y="0px"
	 width="14px" height="22px" viewBox="0 0 14 22" enable-background="new 0 0 14 22" xml:space="preserve">
<g>
	<path fill="#244A5A" d="M11.889,2.272C10.563,1.02,8.969,0.41,7.016,0.41c-1.078,0-2.14,0.254-3.156,0.754
		C2.849,1.662,2.017,2.342,1.386,3.185c-0.669,0.894-1.08,2.03-1.226,3.384h3.892c0.44-2.145,2.104-2.39,2.839-2.39
		c0.741,0,1.41,0.268,1.933,0.775c0.529,0.521,0.796,1.155,0.796,1.889c0,0.688-0.271,1.958-2.09,2.743l-1.226,0.525
		c-0.604,0.264-1.002,0.607-1.252,1.08c-0.391,0.74-0.436,2.303-0.408,3.259h4.389c0.055-0.66,0.157-1.348,0.348-1.661
		c0.286-0.475,0.825-0.881,1.804-1.358c1.812-0.884,2.656-2.336,2.656-4.569C13.84,5.015,13.201,3.514,11.889,2.272z"/>
	<ellipse fill="#244A5A" cx="6.86" cy="18.992" rx="2.661" ry="2.598"/>
</g>
</svg>
