<?xml version="1.0" encoding="utf-8"?>
<!-- Generator: Adobe Illustrator 16.0.0, SVG Export Plug-In . SVG Version: 6.00 Build 0)  -->
<!DOCTYPE svg PUBLIC "-//W3C//DTD SVG 1.1//EN" "http://www.w3.org/Graphics/SVG/1.1/DTD/svg11.dtd">
<svg version="1.1" id="Layer_1" xmlns="http://www.w3.org/2000/svg" xmlns:xlink="http://www.w3.org/1999/xlink" x="0px" y="0px"
	 width="9.231px" height="12px" viewBox="14.385 13 9.231 12" enable-background="new 14.385 13 9.231 12" xml:space="preserve">
<path fill="#244A5A" d="M19.058,13c-1.02,0-1.902,0.423-2.451,1.11c-0.55,0.688-0.779,1.579-0.779,2.539v0.505h1.385v-0.505
	c0-0.729,0.179-1.301,0.476-1.673c0.296-0.372,0.696-0.592,1.37-0.592c0.675,0,1.075,0.209,1.371,0.577
	c0.295,0.37,0.477,0.951,0.477,1.688v0.505h1.385v-0.505c0-0.965-0.244-1.866-0.795-2.553C20.945,13.41,20.076,13,19.058,13z
	 M15.77,17.615c-0.765,0-1.385,0.621-1.385,1.385v4.615c0,0.765,0.621,1.385,1.385,1.385h6.46c0.767,0,1.386-0.62,1.386-1.385V19
	c0-0.764-0.619-1.385-1.386-1.385H15.77z M19,19.923c0.509,0,0.923,0.414,0.923,0.925c0,0.34-0.187,0.633-0.461,0.791v1.055
	c0,0.255-0.208,0.461-0.462,0.461s-0.462-0.206-0.462-0.461v-1.055c-0.275-0.158-0.461-0.451-0.461-0.791
	C18.077,20.337,18.49,19.923,19,19.923z"/>
</svg>
