<?xml version="1.0" encoding="utf-8"?>
<!-- Generator: Adobe Illustrator 16.0.0, SVG Export Plug-In . SVG Version: 6.00 Build 0)  -->
<!DOCTYPE svg PUBLIC "-//W3C//DTD SVG 1.1//EN" "http://www.w3.org/Graphics/SVG/1.1/DTD/svg11.dtd">
<svg version="1.1" id="Layer_1" xmlns="http://www.w3.org/2000/svg" xmlns:xlink="http://www.w3.org/1999/xlink" x="0px" y="0px"
	 width="40.438px" height="9.719px" viewBox="0 0 40.438 9.719" enable-background="new 0 0 40.438 9.719" xml:space="preserve">
<g id="more_1_">
	<g>
		<g>
			<path fill="#244A5A" d="M4.859,0c2.639,0,4.859,2.219,4.859,4.859S7.498,9.719,4.859,9.719C2.219,9.719,0,7.5,0,4.859
				S2.219,0,4.859,0z"/>
			<path fill="#244A5A" d="M20.219,0c2.639,0,4.859,2.219,4.859,4.859s-2.221,4.859-4.859,4.859c-2.641,0-4.859-2.219-4.859-4.859
				S17.578,0,20.219,0z"/>
			<path fill="#244A5A" d="M35.578,0c2.641,0,4.859,2.219,4.859,4.859s-2.219,4.859-4.859,4.859c-2.639,0-4.859-2.219-4.859-4.859
				S32.939,0,35.578,0z"/>
		</g>
	</g>
</g>
</svg>
