<svg id="Layer_1" data-name="Layer 1" xmlns="http://www.w3.org/2000/svg" width="48.18" height="48" viewBox="0 0 48.18 48"><defs><style>.cls-1{fill:#244a5a;}</style></defs><title>options</title><path class="cls-1" d="M48.18,20.31a0.9,0.9,0,0,0-.89-1.08c-1.19-.19-2.37-0.41-3.56-0.59a1.2,1.2,0,0,1-1.1-.91,14.57,14.57,0,0,0-1-2.38,1.17,1.17,0,0,1,.12-1.42c0.69-.94,1.37-1.9,2.07-2.84A1.09,1.09,0,0,0,43.8,9.5c-1.63-1.88-3.48-3.55-5.22-5.33a1,1,0,0,0-1.46,0c-1,.71-2,1.35-3,2a1.23,1.23,0,0,1-1.36.14,20.72,20.72,0,0,0-2.55-1,1.1,1.1,0,0,1-.8-1c-0.16-1.08-.35-2.15-0.53-3.22A1.93,1.93,0,0,0,28.5,0H19.57a1.76,1.76,0,0,0-.38,1c-0.17,1-.38,2.08-0.51,3.13A1.35,1.35,0,0,1,17.61,5.5a8.8,8.8,0,0,0-2.12.93,1.3,1.3,0,0,1-1.58-.12c-1-.72-2-1.37-2.94-2.08a1,1,0,0,0-1.5.12Q6.91,6.95,4.32,9.51a1,1,0,0,0-.1,1.56C4.94,12,5.63,13,6.34,14a1.2,1.2,0,0,1,.13,1.42,6.64,6.64,0,0,0-.84,2,1.62,1.62,0,0,1-1.79,1.44,1.46,1.46,0,0,0-.35,0C2.34,19.13,1.1,19,0,19.57V28.5a1.93,1.93,0,0,0,1.11.4c1.07,0.17,2.14.38,3.22,0.53a1.18,1.18,0,0,1,1.11.9,10,10,0,0,0,1,2.2,1.4,1.4,0,0,1-.15,1.73c-0.69.91-1.34,1.85-2,2.79s-0.55,1,.11,1.71q2.46,2.51,5,5c0.67,0.66.9,0.66,1.7,0.1,1-.67,1.92-1.35,2.86-2a1.3,1.3,0,0,1,1.58-.14,9.13,9.13,0,0,0,2.29.95,1.23,1.23,0,0,1,1,1.14c0.17,1.13.39,2.26,0.56,3.39a0.87,0.87,0,0,0,1,.87q3.86,0,7.72,0a0.75,0.75,0,0,0,.9-0.75c0.19-1.22.41-2.43,0.6-3.64a1.26,1.26,0,0,1,1-1.14,11.38,11.38,0,0,0,2.23-.9,1.31,1.31,0,0,1,1.58.15c0.93,0.71,1.9,1.38,2.86,2.05,0.78,0.56,1,.55,1.62-0.1q2.54-2.5,5-5C44.5,38,44.5,37.77,44,37c-0.68-1-1.39-2-2.09-2.94a1.3,1.3,0,0,1-.12-1.52,12.29,12.29,0,0,0,1-2.37,1,1,0,0,1,1-.81c1.19-.18,2.38-0.37,3.57-0.52a0.89,0.89,0,0,0,.89-1.08Q48.11,24,48.18,20.31ZM24.12,33a9.18,9.18,0,1,1,9.14-9.23A9.15,9.15,0,0,1,24.12,33Z"/></svg>