<svg xmlns="http://www.w3.org/2000/svg" width="20.07" height="20" viewBox="0 0 20.07 20">
  <defs>
    <style>
      .a {
        fill: #244a5a;
      }
    </style>
  </defs>
  <title>option</title>
  <path class="a" d="M482,569.46a0.38,0.38,0,0,0-.37-0.45l-1.48-.24a0.5,0.5,0,0,1-.46-0.38,6.17,6.17,0,0,0-.41-1,0.49,0.49,0,0,1,0-.59l0.86-1.18a0.45,0.45,0,0,0,0-.66c-0.68-.79-1.45-1.48-2.18-2.22a0.42,0.42,0,0,0-.61,0c-0.41.29-.83,0.56-1.24,0.85a0.51,0.51,0,0,1-.57.06,8.57,8.57,0,0,0-1.06-.43,0.46,0.46,0,0,1-.34-0.42c-0.07-.45-0.15-0.89-0.22-1.34a0.8,0.8,0,0,0-.17-0.46h-3.72a0.74,0.74,0,0,0-.16.43c-0.07.43-.16,0.87-0.21,1.3a0.56,0.56,0,0,1-.45.56,3.77,3.77,0,0,0-.88.39,0.54,0.54,0,0,1-.66,0c-0.4-.3-0.82-0.57-1.22-0.87a0.41,0.41,0,0,0-.62.05q-1.07,1.08-2.15,2.15a0.43,0.43,0,0,0,0,.65l0.88,1.21a0.5,0.5,0,0,1,.05.59,2.77,2.77,0,0,0-.35.82,0.67,0.67,0,0,1-.75.6l-0.14,0a6.19,6.19,0,0,0-1.46.3v3.72a0.82,0.82,0,0,0,.46.17c0.45,0.07.89,0.16,1.34,0.22a0.49,0.49,0,0,1,.46.37,4.1,4.1,0,0,0,.4.92,0.58,0.58,0,0,1-.06.72c-0.29.38-.56,0.77-0.83,1.16s-0.23.43,0,.71q1,1,2.07,2.07c0.28,0.28.38,0.27,0.71,0s0.8-.56,1.19-0.85a0.54,0.54,0,0,1,.66-0.06,3.83,3.83,0,0,0,1,.39,0.51,0.51,0,0,1,.41.47c0.07,0.47.16,0.94,0.23,1.41a0.36,0.36,0,0,0,.42.37q1.61,0,3.22,0a0.31,0.31,0,0,0,.37-0.31c0.08-.51.17-1,0.25-1.52a0.52,0.52,0,0,1,.41-0.47,4.9,4.9,0,0,0,.93-0.37,0.54,0.54,0,0,1,.66.06c0.39,0.3.79,0.57,1.19,0.86s0.4,0.23.68,0q1.06-1,2.1-2.1c0.27-.28.27-0.36,0-0.68s-0.58-.82-0.87-1.22a0.54,0.54,0,0,1-.05-0.63,5.16,5.16,0,0,0,.41-1,0.43,0.43,0,0,1,.4-0.34l1.49-.22a0.37,0.37,0,0,0,.37-0.45Q482,571,482,569.46Zm-10,5.3a3.83,3.83,0,1,1,3.81-3.85A3.81,3.81,0,0,1,472,574.76Z" transform="translate(-461.98 -561)"/>
</svg>
